
<svg width="56" height="34" viewBox="0 0 56 34" fill="none" xmlns="http://www.w3.org/2000/svg">
<path d="M55.267 21.686C54.233 16.986 50.003 13.461 44.974 13.461C42.436 13.461 40.086 14.354 38.253 15.858L36.185 13.649L37.548 9.419H38.911C39.522 9.419 40.603 8.855 40.603 7.962C40.603 7.069 39.757 6.364 38.582 6.364C37.407 6.364 35.386 7.492 33.459 7.492C31.579 7.492 31.203 8.103 31.203 8.62C31.203 9.09 31.532 9.419 32.143 9.419H36.044L32.002 22.156H31.673H31.626C30.216 22.156 28.994 23.143 28.571 24.412C28.242 24.13 27.772 23.707 27.302 22.955C26.362 21.686 25.469 19.994 24.623 18.349C23.824 16.939 23.119 15.576 22.414 14.495C21.286 12.756 19.923 11.581 18.278 10.923C17.385 10.594 16.539 10.453 15.881 10.406L17.291 4.484C17.338 4.296 17.338 4.108 17.244 3.967L15.928 1.852H19.97C20.393 1.852 20.675 1.523 20.675 1.147C20.675 0.770999 20.393 0.441998 19.97 0.441998H14.988H14.847C14.659 0.394998 14.471 0.441998 14.33 0.535999C14.001 0.724 13.907 1.147 14.095 1.523L15.881 4.437L14.33 10.782C14.283 10.876 14.283 10.923 14.283 11.017L13.954 12.38C13.014 12.145 12.074 12.051 11.087 12.051C10.711 12.051 10.382 12.333 10.382 12.756C10.382 13.132 10.711 13.461 11.087 13.461C11.933 13.461 12.779 13.555 13.578 13.743L13.437 14.401C12.544 14.166 11.651 14.025 10.664 14.025C5.165 14.025 0.7 18.49 0.7 23.989C0.7 29.488 5.165 33.953 10.664 33.953C16.163 33.953 20.628 29.488 20.628 23.989C20.628 19.947 18.231 16.469 14.753 14.918L14.941 14.213C18.56 15.717 21.145 19.289 21.145 23.472C21.145 23.848 21.427 24.177 21.85 24.177C22.226 24.177 22.555 23.848 22.555 23.472C22.555 20.417 21.333 17.55 19.171 15.388C18.043 14.26 16.727 13.414 15.27 12.803L15.552 11.769C16.21 11.816 16.962 11.91 17.761 12.239C19.124 12.803 20.252 13.79 21.239 15.247C21.897 16.281 22.602 17.644 23.354 19.007C25.046 22.156 26.644 25.164 28.477 26.01C28.571 26.433 28.712 26.809 28.947 27.138L26.409 29.676H25.046C24.623 29.676 24.341 30.005 24.341 30.381C24.341 30.804 24.623 31.086 25.046 31.086H28.9C29.323 31.086 29.605 30.804 29.605 30.381C29.605 30.005 29.323 29.676 28.9 29.676H28.383L29.934 28.172C30.451 28.501 31.015 28.689 31.673 28.689C32.848 28.689 33.882 28.078 34.446 27.138L35.48 26.997C36.749 31.039 40.509 33.953 44.974 33.953C50.473 33.953 54.938 29.488 54.938 23.989C54.938 23.237 54.891 22.532 54.703 21.827C54.985 21.78 55.173 21.733 55.267 21.686ZM8.079 9.795C8.22 10.5 8.878 11.111 9.63 11.111H12.121C12.826 11.111 13.578 10.547 13.719 9.795L14.753 5.33C14.894 4.625 14.471 4.061 13.719 4.061H8.643C7.891 4.061 7.374 4.625 7.468 5.377L8.079 9.795ZM35.715 15.153L37.266 16.798C35.997 18.161 35.104 19.806 34.681 21.592C34.822 21.78 34.963 21.921 35.198 22.062C35.198 22.109 35.198 22.109 35.151 22.156H33.459L35.715 15.153ZM10.194 21.78L9.959 21.874L7.045 16.751C7.985 16.281 9.066 15.999 10.194 15.905V21.78ZM12.544 18.067L11.134 21.357V15.905C11.792 15.952 12.403 16.046 13.014 16.234L12.544 18.067ZM6.199 17.221L9.16 22.344L9.019 22.485L3.896 19.571C4.507 18.631 5.306 17.832 6.199 17.221ZM17.432 19.571L12.356 22.485L12.215 22.391L12.497 21.78L15.129 17.221C16.022 17.832 16.821 18.631 17.432 19.571ZM46.572 22.438L48.781 18.631H48.922C50.003 18.631 50.943 19.148 51.648 19.853L46.76 22.626C46.713 22.579 46.666 22.485 46.572 22.438ZM45.773 21.921L45.444 21.78V21.686C45.585 21.498 45.726 21.31 45.82 21.122C46.196 20.511 46.666 19.665 47.371 19.148L45.773 21.921ZM3.426 20.37L8.549 23.284C8.502 23.378 8.502 23.472 8.455 23.519H2.58C2.674 22.391 2.956 21.31 3.426 20.37ZM18.748 23.519H12.873C12.826 23.472 12.826 23.378 12.826 23.284L17.902 20.37C18.372 21.31 18.701 22.391 18.748 23.519ZM47.23 23.754C47.183 23.66 47.183 23.566 47.183 23.519L52.212 20.605C52.306 20.746 52.4 20.887 52.447 21.028C52.541 21.216 52.588 21.357 52.682 21.451C52.917 22.156 53.058 22.955 53.058 23.754H47.23ZM2.58 24.459H8.455L8.549 24.694L3.426 27.608C2.956 26.668 2.674 25.587 2.58 24.459ZM17.902 27.608L12.826 24.694C12.826 24.6 12.826 24.553 12.873 24.459H18.748C18.701 25.587 18.372 26.668 17.902 27.608ZM52.118 27.796L47.042 24.882C47.089 24.788 47.089 24.741 47.136 24.694H53.058C52.964 25.822 52.635 26.856 52.118 27.796ZM3.896 28.454L9.019 25.493L9.16 25.681L6.199 30.757C5.306 30.146 4.507 29.347 3.896 28.454ZM15.129 30.757L12.168 25.681C12.215 25.634 12.262 25.54 12.356 25.493L17.432 28.454C16.821 29.347 16.022 30.146 15.129 30.757ZM49.345 30.804L46.384 25.728L46.525 25.634L51.648 28.595C51.037 29.488 50.238 30.24 49.345 30.804ZM38.347 28.595L42.859 26.01L43.47 25.916L40.65 30.804C39.71 30.24 38.958 29.488 38.347 28.595ZM10.194 26.198V32.073C9.066 32.026 7.985 31.697 7.045 31.227L9.959 26.151C10.053 26.151 10.1 26.198 10.194 26.198ZM11.134 26.198C11.228 26.198 11.275 26.151 11.369 26.151L14.283 31.227C13.343 31.697 12.262 32.026 11.134 32.073V26.198ZM44.504 26.198V32.073C43.423 32.026 42.389 31.744 41.449 31.274L44.41 26.151C44.457 26.198 44.504 26.198 44.504 26.198ZM45.444 26.198C45.491 26.198 45.538 26.151 45.585 26.151L48.499 31.274C47.606 31.744 46.572 32.026 45.444 32.073V26.198ZM40.415 26.339L37.83 27.796C37.642 27.467 37.501 27.091 37.36 26.715L40.415 26.339Z" fill="currentColor"/>
</svg>
