
<svg width="26" height="29" viewBox="0 0 26 29" fill="none" xmlns="http://www.w3.org/2000/svg">
<path d="M25.234 7.761C24.482 6.492 21.944 3.296 21.051 2.262C20.628 1.651 19.688 0.945998 18.936 0.804997C16.069 0.193999 15.928 0.0999978 14.894 0.0999978C13.108 0.0999978 11.416 0.617 11.087 0.663999L5.306 2.074C4.554 2.262 3.661 2.92 3.426 3.531L0.982 8.325C0.7 8.936 0.606 10.158 0.888 10.863L6.904 26.326C7.374 27.595 8.314 28.817 12.826 28.817C17.338 28.817 20.957 27.642 21.38 26.279L25.751 10.299C25.892 9.547 25.845 8.701 25.234 7.761ZM13.155 27.877C10.899 27.877 8.596 27.266 8.596 26.42C8.596 25.809 11.604 24.399 15.223 24.399C18.231 24.399 20.017 25.574 20.017 25.997C20.017 26.796 16.586 27.877 13.155 27.877Z" fill="currentColor"/>
</svg>
