
<svg width="56" height="24" viewBox="0 0 56 24" fill="none" xmlns="http://www.w3.org/2000/svg">
<path d="M12.967 7.033L13.155 7.738C13.155 7.738 15.082 8.537 17.714 8.537H38.488C41.073 8.537 43 7.738 43 7.738L43.235 7.033C39.146 7.738 38.112 3.273 38.065 3.132L38.958 0.5H38.065C37.125 0.97 35.057 2.897 28.101 2.897C21.145 2.897 19.077 0.97 18.137 0.5H17.197L18.09 3.132C18.09 3.273 17.056 7.738 12.967 7.033ZM28.101 2.38C28.524 2.38 28.9 2.004 28.9 1.534C28.9 1.111 28.524 0.734998 28.101 0.734998C27.631 0.734998 27.255 1.111 27.255 1.534C27.255 2.004 27.631 2.38 28.101 2.38ZM48.499 8.396C45.35 8.866 45.209 6.093 45.209 5.764L45.538 4.025H44.598C43.987 4.824 44.504 5.106 40.18 5.247C40.744 5.858 41.496 6.14 42.436 6.14C43.141 6.14 43.752 5.952 44.034 6.234C44.175 6.375 44.316 6.845 43.987 8.067C43.94 8.255 43.846 8.349 43.658 8.443C43.564 8.49 41.496 9.289 39.522 9.43V10.464H46.149C47.465 10.464 48.499 9.336 48.499 9.336V8.396ZM7.75 8.443V9.383C7.75 9.383 8.784 10.511 10.1 10.511H16.727V9.477C14.753 9.336 12.685 8.537 12.591 8.49C12.403 8.396 12.309 8.302 12.262 8.114C11.933 6.892 12.074 6.422 12.215 6.281C12.497 5.999 13.108 6.187 13.813 6.187C14.753 6.187 15.505 5.905 16.069 5.294C11.745 5.153 12.262 4.871 11.651 4.072H10.711L11.04 5.811C11.04 6.14 10.899 8.913 7.75 8.443ZM47.089 12.156H55.549V11.216C53.951 10.088 52.165 7.879 52.165 7.879H49.11C49.204 7.926 49.439 8.208 49.439 8.772V9.336C49.439 9.571 49.392 9.853 49.251 9.994C49.063 10.182 48.358 10.981 47.089 11.216V12.156ZM9.16 12.203V11.263C7.891 11.028 7.186 10.229 6.998 10.041C6.857 9.9 6.81 9.618 6.81 9.383V8.819C6.81 8.255 7.045 7.973 7.139 7.926H4.084C4.084 7.926 2.298 10.135 0.7 11.263V12.203H9.16ZM38.488 21.18V9.477H17.667V21.18H19.641V12.626H22.696V21.18H26.08V12.626H30.075V21.18H33.506V12.626H36.561V21.18H38.488ZM31.25 11.686H24.952V10.417H31.25V11.686ZM16.727 21.18V11.451H10.1V21.18H12.027V13.096H14.283V21.18H16.727ZM46.055 21.18V11.451H39.428V21.18H41.966V13.096H44.128V21.18H46.055ZM9.16 21.18V13.143H2.674V21.18H9.16ZM46.995 21.18H53.481V13.143H46.995V21.18ZM2.674 22.12V24H53.481V22.12H2.674Z" fill="currentColor"/>
</svg>
