
<svg width="40" height="38" viewBox="0 0 40 38" fill="none" xmlns="http://www.w3.org/2000/svg">
<path d="M8.314 0.399999L2.627 6.792H13.954L8.314 0.399999ZM4.601 13.184H11.98L13.343 7.732H11.275L10.664 10.552C10.476 11.257 10.1 11.257 9.536 11.257H6.904C6.387 11.257 5.964 11.257 5.823 10.552C5.635 9.847 5.165 7.732 5.165 7.732H3.238L4.601 13.184ZM38.347 28.835H36.89V27.895H35.95V21.973H15.975V27.895H15.035V28.835H11.557V14.124H5.024V28.835H2.345L0.7 38H17.197L18.372 29.305H22.602L23.542 38H39.71L38.347 28.835ZM9.16 18.025H7.421V16.004H9.16V18.025ZM18.372 16.239V17.179H33.318V16.239H18.372ZM36.937 20.187L34.117 18.119H17.667L15.035 20.187V21.033H36.937V20.187ZM9.16 22.678H7.421V20.657H9.16V22.678ZM21.004 27.895H17.573V24.652C17.573 23.994 18.325 23.477 19.265 23.477C20.205 23.477 21.004 23.994 21.004 24.652V27.895ZM25.516 27.895H22.132V24.652C22.132 23.994 22.884 23.477 23.824 23.477C24.764 23.477 25.516 23.994 25.516 24.652V27.895ZM30.075 27.895H26.691V24.652C26.691 23.994 27.443 23.477 28.383 23.477C29.323 23.477 30.075 23.994 30.075 24.652V27.895ZM34.446 27.895H31.062V24.652C31.062 23.994 31.814 23.477 32.754 23.477C33.694 23.477 34.446 23.994 34.446 24.652V27.895ZM9.16 28.835H7.421V25.78H9.16V28.835Z" fill="currentColor"/>
</svg>
